<?xml version="1.0" encoding="utf-8"?>
<svg version="1.1" xmlns:cc="http://creativecommons.org/ns#" xmlns:dc="http://purl.org/dc/elements/1.1/" xmlns:rdf="http://www.w3.org/1999/02/22-rdf-syntax-ns#" xmlns="http://www.w3.org/2000/svg" xmlns:xlink="http://www.w3.org/1999/xlink" x="0px" y="0px" viewBox="0 0 1024 768" xml:space="preserve">
<g transform="translate(512,384) scale(1.5 1.2)">
    <path id="path" d="M152.4,-201.9C199,-175.9,239.3,-133.4,249.6,-85C260,-36.7,240.3,17.5,217.4,65.3C194.5,113.1,168.4,154.4,131.6,187.1C94.8,219.9,47.4,243.9,-3.9,249.3C-55.3,254.7,-110.5,241.4,-152.5,210.4C-194.5,179.4,-223.3,130.6,-240,78.2C-256.8,25.8,-261.5,-30.4,-242.2,-75.2C-222.8,-120,-179.3,-153.4,-134.9,-180.2C-90.5,-206.9,-45.3,-227,3.8,-232.2C52.9,-237.5,105.8,-228,152.4,-201.9Z" fill="#e1614a">
	</path>
</g>

<animate xlink:href="#path" attributeType="XML" dur="20s" repeatCount="indefinite" attributeName="d" keyTimes="0; 0.2; 0.4; 0.6; 0.8; 1" calcMode="spline" keySplines="0.9 0.1 0.1 0.9;0.9 0.1 0.1 0.9;0.9 0.1 0.1 0.9;0.9 0.1 0.1 0.9;0.9 0.1 0.1 0.9" values="M120.2,-176.8C149.6,-144.2,162.8,-100.7,175.5,-57.9C188.3,-15,200.7,27.1,195.6,70.1C190.6,113,168.2,156.8,132.7,178C97.2,199.1,48.6,197.5,4.9,190.8C-38.8,184.1,-77.6,172.1,-115.3,151.7C-153,131.3,-189.7,102.4,-205.6,64.2C-221.6,26.1,-216.8,-21.4,-204,-67.9C-191.2,-114.4,-170.2,-160,-134.9,-190.6C-99.5,-221.3,-49.8,-237.2,-2.2,-234.2C45.5,-231.2,90.9,-209.5,120.2,-176.8Z; M152.4,-201.9C199,-175.9,239.3,-133.4,249.6,-85C260,-36.7,240.3,17.5,217.4,65.3C194.5,113.1,168.4,154.4,131.6,187.1C94.8,219.9,47.4,243.9,-3.9,249.3C-55.3,254.7,-110.5,241.4,-152.5,210.4C-194.5,179.4,-223.3,130.6,-240,78.2C-256.8,25.8,-261.5,-30.4,-242.2,-75.2C-222.8,-120,-179.3,-153.4,-134.9,-180.2C-90.5,-206.9,-45.3,-227,3.8,-232.2C52.9,-237.5,105.8,-228,152.4,-201.9Z; M101.9,-120.6C144.2,-109.5,199.1,-96,223.6,-62.7C248.2,-29.4,242.5,23.8,220.4,65.3C198.2,106.8,159.7,136.8,120.2,173.1C80.7,209.4,40.4,252.2,-4.7,258.7C-49.8,265.2,-99.5,235.3,-119,192.5C-138.5,149.7,-127.8,93.8,-144.4,46.1C-161,-1.6,-205.1,-41.3,-214.9,-88C-224.7,-134.6,-200.2,-188.3,-158.7,-199.6C-117.2,-210.9,-58.6,-180,-14.4,-160.1C29.8,-140.3,59.6,-131.6,101.9,-120.6Z; M113.1,-161.5C148.6,-129.9,180.8,-99.5,181.6,-66.3C182.3,-33.1,151.5,3.1,132.4,37.1C113.2,71.2,105.7,103.2,85.6,142.9C65.4,182.7,32.7,230.4,-3.9,235.8C-40.6,241.2,-81.1,204.3,-114.7,168.9C-148.3,133.5,-175,99.5,-198.1,57.5C-221.3,15.5,-240.9,-34.6,-221,-64.4C-201.2,-94.2,-141.7,-103.7,-98.3,-132.8C-54.9,-161.8,-27.4,-210.4,5.7,-218.2C38.8,-226.1,77.6,-193.1,113.1,-161.5Z; M102,-143.7C138.9,-113.5,180.3,-92.8,196.8,-59.7C213.4,-26.7,205.1,18.6,190.6,61.5C176.1,104.4,155.4,144.8,122.5,162.7C89.7,180.5,44.9,175.8,-1.2,177.4C-47.2,179,-94.4,187,-113.8,164.8C-133.1,142.5,-124.6,90.1,-143.6,43.8C-162.6,-2.6,-209.2,-42.9,-216.4,-85.7C-223.7,-128.5,-191.5,-173.9,-148.8,-202.2C-106.2,-230.5,-53.1,-241.7,-10.3,-227.6C32.5,-213.4,65,-173.9,102,-143.7Z; M120.2,-176.8C149.6,-144.2,162.8,-100.7,175.5,-57.9C188.3,-15,200.7,27.1,195.6,70.1C190.6,113,168.2,156.8,132.7,178C97.2,199.1,48.6,197.5,4.9,190.8C-38.8,184.1,-77.6,172.1,-115.3,151.7C-153,131.3,-189.7,102.4,-205.6,64.2C-221.6,26.1,-216.8,-21.4,-204,-67.9C-191.2,-114.4,-170.2,-160,-134.9,-190.6C-99.5,-221.3,-49.8,-237.2,-2.2,-234.2C45.5,-231.2,90.9,-209.5,120.2,-176.8Z" fill="freeze"   />
<path d="m256.2 354.16v3.52 3.53l11.46 11.38 11.47 11.38-1.53 1.54c-0.85 0.84-6.01 5.97-11.47 11.4l-9.93 9.87v3.52l-0.01 3.53 3.25-3.23c1.78-1.78 8.54-8.5 15.01-14.93l11.77-11.69-0.43-0.43c-0.23-0.23-6.15-6.1-13.14-13.05-6.99-6.94-13.56-13.46-14.58-14.48h-0.01l-1.86-1.86zm-14.89 0.02l-0.07 0.13c-0.03 0.08-5.69 13.5-12.56 29.83l-12.51 29.69 2.42 0.01c1.34 0.01 2.44 0 2.45-0.02 0.02-0.02 5.68-13.43 12.57-29.81 6.9-16.37 12.55-29.78 12.56-29.8s-1.08-0.03-2.42-0.03h-2.44zm-35.17 0s-5.38 5.34-11.95 11.87-13.32 13.23-15 14.9l-3.06 3.03 8.85 8.8c4.87 4.83 11.63 11.54 15.01 14.91l6.16 6.13v-3.52-3.52l-9.95-9.89c-5.48-5.45-10.64-10.58-11.47-11.41l-1.51-1.51 11.47-11.39 11.46-11.38v-3.51c0-1.93 0-3.51-0.01-3.51zm276.54 1.5c-5.51 0-10.47 1.28-14.87 3.76-4.47 2.48-7.91 5.83-10.47 10.15-2.55 4.31-3.75 9.19-3.75 14.46 0 5.36 1.2 10.15 3.75 14.47 2.56 4.32 6 7.75 10.47 10.23 4.4 2.48 9.36 3.68 14.87 3.68 5.43 0 10.39-1.2 14.86-3.68 4.4-2.4 7.84-5.83 10.39-10.15 2.56-4.32 3.84-9.11 3.84-14.55 0-5.35-1.28-10.23-3.84-14.54-2.55-4.32-5.99-7.68-10.39-10.15-4.47-2.4-9.43-3.68-14.86-3.68zm119.24 0c-5.52 0-10.47 1.28-14.87 3.76-4.47 2.48-7.91 5.83-10.47 10.15-2.56 4.31-3.75 9.19-3.75 14.46 0 5.36 1.19 10.15 3.75 14.47s6 7.75 10.47 10.23c4.4 2.48 9.35 3.68 14.87 3.68 5.43 0 10.39-1.2 14.86-3.68 4.4-2.4 7.83-5.83 10.39-10.15s3.84-9.11 3.84-14.55c0-5.35-1.28-10.23-3.84-14.54-2.56-4.32-5.99-7.68-10.39-10.15-4.47-2.4-9.43-3.68-14.86-3.68zm-265.8 0.4v3.68h20.05c5.92 0 10.47 1.36 13.67 3.99 3.12 2.64 4.72 6.4 4.72 11.19 0 4.88-1.6 8.63-4.72 11.19-3.2 2.64-7.75 3.92-13.67 3.92h-20.05v21.98h4.07v-18.31h15.98c7.04 0 12.55-1.6 16.55-4.95 3.99-3.36 5.99-7.91 5.99-13.83 0-5.83-2-10.47-5.99-13.82-4-3.36-9.51-5.04-16.55-5.04h-20.05zm60.78 0v3.68h20.06c5.92 0 10.47 1.36 13.67 3.99 3.12 2.64 4.72 6.4 4.72 11.19 0 4.88-1.6 8.63-4.72 11.27-3.2 2.64-7.75 3.92-13.67 3.92h-20.06v21.9h4.08v-18.31h15.98c1.6 0 3.44-0.08 5.44-0.4l13.35 18.71h4.63l-13.99-19.58c4.16-1.2 7.44-3.28 9.67-6.32 2.24-3.04 3.44-6.71 3.44-11.19 0-5.83-2-10.47-5.99-13.82-4-3.36-9.51-5.04-16.55-5.04h-20.06zm123.24 0v3.68h20.14v52.27h4.07v-52.27h20.14v-3.68h-44.35zm119.24 0v3.68h20.13v52.27h4.08v-52.27h20.14v-3.68h-44.35zm49.16 0l22.53 36.68v19.27h4.08v-19.27l22.54-36.68h-4.24l-20.22 32.93-20.22-32.93h-4.47zm62.33 0v3.68h20.06c5.92 0 10.47 1.36 13.67 3.99 3.12 2.64 4.71 6.4 4.71 11.19 0 4.88-1.59 8.63-4.71 11.19-3.2 2.64-7.75 3.92-13.67 3.92h-20.06v21.98h4.08v-18.31h15.98c7.04 0 12.55-1.6 16.55-4.95 3.99-3.36 5.99-7.91 5.99-13.83 0-5.83-2-10.47-5.99-13.82-4-3.36-9.51-5.04-16.55-5.04h-20.06zm60.79 0v3.68h36.21v-3.68h-36.21zm-328.98 3.36c4.64 0 8.87 1.12 12.71 3.19 3.75 2.16 6.71 5.12 8.95 8.88 2.16 3.75 3.27 7.91 3.27 12.54 0 4.64-1.11 8.87-3.27 12.63-2.24 3.76-5.2 6.71-8.95 8.79-3.84 2.16-8.07 3.2-12.71 3.2-4.72 0-8.95-1.04-12.79-3.2-3.83-2.08-6.79-5.03-8.95-8.79-2.24-3.76-3.28-7.99-3.28-12.63 0-4.63 1.04-8.79 3.28-12.54 2.16-3.76 5.12-6.72 8.95-8.88 3.84-2.07 8.07-3.19 12.79-3.19zm119.24 0c4.63 0 8.87 1.12 12.7 3.19 3.76 2.16 6.72 5.12 8.96 8.88 2.15 3.75 3.27 7.91 3.27 12.54 0 4.64-1.12 8.87-3.27 12.63-2.24 3.76-5.2 6.71-8.96 8.79-3.83 2.16-8.07 3.2-12.7 3.2-4.72 0-8.95-1.04-12.79-3.2-3.84-2.08-6.79-5.03-8.95-8.79-2.24-3.76-3.28-7.99-3.28-12.63 0-4.63 1.04-8.79 3.28-12.54 2.16-3.76 5.11-6.72 8.95-8.88 3.84-2.07 8.07-3.19 12.79-3.19zm209.74 22.38v3.59h36.21v-3.59h-36.21zm0 26.53v3.68h36.21v-3.68h-36.21z" fill="#212121" transform="translate(153.6 115.2) scale(0.7)" />
</svg>